# xmcd
#
# Track frame offsets: 
#        150
#        107399
#        171786
#        270785
#
# Disc length: 4476 seconds
#
# Revision: 0
# Processed by: cddbd v1.5.2PL0 Copyright (c) Steve Scherf et al.
# Submitted via: ExactAudioCopy v0.99pb5
#
DISCID=22117a04
DTITLE=XDJ Aksim - Rima 614
DYEAR=2010
DGENRE=Rap
TTITLE0=Rima 614 Mix Pt.1
TTITLE1=Rima 614 Mix Pt.2
TTITLE2=Rima 614 Mix Pt.3
TTITLE3=Rima 614 Mix Pt.4
EXTD=
EXTT0=
EXTT1=
EXTT2=
EXTT3=
PLAYORDER=
